<?xml version="1.0" encoding="UTF-8" standalone="no"?>
<!DOCTYPE svg PUBLIC "-//W3C//DTD SVG 1.1//EN"
 "http://www.w3.org/Graphics/SVG/1.1/DTD/svg11.dtd">
<!-- Generated by graphviz version 8.1.0 (20230707.0739)
 -->
<!-- Title: example2 Pages: 1 -->
<svg width="2115pt" height="827pt"
 viewBox="0.00 0.00 2114.97 827.00" xmlns="http://www.w3.org/2000/svg" xmlns:xlink="http://www.w3.org/1999/xlink">
<g id="graph0" class="graph" transform="scale(1 1) rotate(0) translate(4 823)">
<title>example2</title>
<polygon fill="white" stroke="none" points="-4,4 -4,-823 2110.97,-823 2110.97,4 -4,4"/>
<!-- N0 -->
<g id="node1" class="node">
<title>N0</title>
<ellipse fill="none" stroke="black" cx="1512.22" cy="-105" rx="43.67" ry="18"/>
<text text-anchor="middle" x="1512.22" y="-99.95" font-family="Times,serif" font-size="14.00">rustc_ast</text>
</g>
<!-- N12 -->
<g id="node13" class="node">
<title>N12</title>
<ellipse fill="none" stroke="black" cx="1928.22" cy="-18" rx="51.86" ry="18"/>
<text text-anchor="middle" x="1928.22" y="-12.95" font-family="Times,serif" font-size="14.00">rustc_lexer</text>
</g>
<!-- N0&#45;&gt;N12 -->
<g id="edge15" class="edge">
<title>N0&#45;&gt;N12</title>
<path fill="none" stroke="black" d="M1550.61,-96.16C1624.87,-80.98 1788.39,-47.57 1873.82,-30.12"/>
<polygon fill="black" stroke="black" points="1874.24,-33.4 1883.34,-27.97 1872.84,-26.54 1874.24,-33.4"/>
<text text-anchor="middle" x="1749.1" y="-55.7" font-family="Times,serif" font-size="14.00">⊆</text>
</g>
<!-- N1 -->
<g id="node2" class="node">
<title>N1</title>
<ellipse fill="none" stroke="black" cx="1474.22" cy="-453" rx="81.04" ry="18"/>
<text text-anchor="middle" x="1474.22" y="-447.95" font-family="Times,serif" font-size="14.00">rustc_ast_lowering</text>
</g>
<!-- N1&#45;&gt;N0 -->
<g id="edge7" class="edge">
<title>N1&#45;&gt;N0</title>
<path fill="none" stroke="black" d="M1466.8,-434.88C1463.47,-424.27 1461.75,-410.99 1469.22,-402 1497.25,-368.29 1534.95,-414.73 1566.22,-384 1583.69,-366.83 1574.76,-354.37 1577.22,-330 1585.65,-246.42 1620.29,-213.12 1577.22,-141 1572.3,-132.77 1564.7,-126.35 1556.41,-121.4"/>
<polygon fill="black" stroke="black" points="1558.35,-117.94 1547.87,-116.42 1555.11,-124.15 1558.35,-117.94"/>
<text text-anchor="middle" x="1594.1" y="-273.2" font-family="Times,serif" font-size="14.00">⊆</text>
</g>
<!-- N6 -->
<g id="node7" class="node">
<title>N6</title>
<ellipse fill="none" stroke="black" cx="1101.22" cy="-192" rx="43.67" ry="18"/>
<text text-anchor="middle" x="1101.22" y="-186.95" font-family="Times,serif" font-size="14.00">rustc_hir</text>
</g>
<!-- N1&#45;&gt;N6 -->
<g id="edge8" class="edge">
<title>N1&#45;&gt;N6</title>
<path fill="none" stroke="black" d="M1458.25,-434.98C1453.25,-429.4 1447.85,-423.07 1443.22,-417 1421.02,-387.88 1428.19,-369.02 1398.22,-348 1369.54,-327.88 1352.66,-345.97 1321.47,-330 1290.73,-314.26 1234.16,-245.21 1204.22,-228 1187.11,-218.16 1166.81,-210.53 1148.77,-204.93"/>
<polygon fill="black" stroke="black" points="1150.03,-201.36 1139.45,-201.87 1148.04,-208.07 1150.03,-201.36"/>
<text text-anchor="middle" x="1326.1" y="-316.7" font-family="Times,serif" font-size="14.00">⊆</text>
</g>
<!-- N13 -->
<g id="node14" class="node">
<title>N13</title>
<ellipse fill="none" stroke="black" cx="913.22" cy="-366" rx="59.54" ry="18"/>
<text text-anchor="middle" x="913.22" y="-360.95" font-family="Times,serif" font-size="14.00">rustc_middle</text>
</g>
<!-- N1&#45;&gt;N13 -->
<g id="edge9" class="edge">
<title>N1&#45;&gt;N13</title>
<path fill="none" stroke="black" d="M1416.29,-439.99C1405.66,-438.09 1394.63,-436.32 1384.22,-435 1264.14,-419.74 1232.04,-435.81 1112.47,-417 1061.48,-408.98 1004.46,-394.05 964.52,-382.58"/>
<polygon fill="black" stroke="black" points="965.57,-378.95 954.99,-379.52 963.62,-385.67 965.57,-378.95"/>
<text text-anchor="middle" x="1117.1" y="-403.7" font-family="Times,serif" font-size="14.00">⊆</text>
</g>
<!-- N2 -->
<g id="node3" class="node">
<title>N2</title>
<ellipse fill="none" stroke="black" cx="562.22" cy="-627" rx="68.75" ry="18"/>
<text text-anchor="middle" x="562.22" y="-621.95" font-family="Times,serif" font-size="14.00">rustc_borrowck</text>
</g>
<!-- N3 -->
<g id="node4" class="node">
<title>N3</title>
<ellipse fill="none" stroke="black" cx="403.22" cy="-540" rx="72.85" ry="18"/>
<text text-anchor="middle" x="403.22" y="-534.95" font-family="Times,serif" font-size="14.00">rustc_const_eval</text>
</g>
<!-- N2&#45;&gt;N3 -->
<g id="edge45" class="edge">
<title>N2&#45;&gt;N3</title>
<path fill="none" stroke="black" d="M528.87,-610.93C516.11,-604.96 501.5,-597.89 488.47,-591 471.77,-582.16 453.66,-571.67 438.44,-562.59"/>
<polygon fill="black" stroke="black" points="440.75,-559.29 430.38,-557.14 437.15,-565.29 440.75,-559.29"/>
<text text-anchor="middle" x="494.1" y="-577.7" font-family="Times,serif" font-size="14.00">⊆</text>
</g>
<!-- N2&#45;&gt;N6 -->
<g id="edge46" class="edge">
<title>N2&#45;&gt;N6</title>
<path fill="none" stroke="black" d="M567.82,-608.63C577.23,-577.83 595.22,-511.47 595.22,-454 595.22,-454 595.22,-454 595.22,-278 595.22,-193.58 864.44,-241.01 1043.22,-210 1047.94,-209.18 1052.83,-208.11 1057.66,-206.91"/>
<polygon fill="black" stroke="black" points="1058.34,-210.08 1067.09,-204.11 1056.53,-203.32 1058.34,-210.08"/>
<text text-anchor="middle" x="600.1" y="-403.7" font-family="Times,serif" font-size="14.00">⊆</text>
</g>
<!-- N10 -->
<g id="node11" class="node">
<title>N10</title>
<ellipse fill="none" stroke="black" cx="712.22" cy="-453" rx="50.84" ry="18"/>
<text text-anchor="middle" x="712.22" y="-447.95" font-family="Times,serif" font-size="14.00">rustc_infer</text>
</g>
<!-- N2&#45;&gt;N10 -->
<g id="edge47" class="edge">
<title>N2&#45;&gt;N10</title>
<path fill="none" stroke="black" d="M574.02,-609.13C593.05,-582.4 632.36,-529.22 671.22,-489 675.28,-484.79 679.81,-480.55 684.32,-476.55"/>
<polygon fill="black" stroke="black" points="686.04,-478.83 691.34,-469.65 681.48,-473.52 686.04,-478.83"/>
<text text-anchor="middle" x="645.1" y="-534.2" font-family="Times,serif" font-size="14.00">⊆</text>
</g>
<!-- N2&#45;&gt;N12 -->
<g id="edge48" class="edge">
<title>N2&#45;&gt;N12</title>
<path fill="none" stroke="black" d="M515.39,-613.45C466.7,-600.24 388.35,-578.56 321.22,-558 185.98,-516.57 39.22,-551.94 39.22,-410.5 39.22,-410.5 39.22,-410.5 39.22,-104 39.22,-57.21 1538.06,-26.33 1865.52,-20.15"/>
<polygon fill="black" stroke="black" points="1865.29,-23.63 1875.22,-19.95 1865.16,-16.63 1865.29,-23.63"/>
<text text-anchor="middle" x="44.1" y="-316.7" font-family="Times,serif" font-size="14.00">⊆</text>
</g>
<!-- N2&#45;&gt;N13 -->
<g id="edge49" class="edge">
<title>N2&#45;&gt;N13</title>
<path fill="none" stroke="black" d="M625.61,-619.86C668.41,-612.31 722.81,-595.49 755.22,-558 775.76,-534.24 754.31,-515.93 770.47,-489 796.77,-445.18 844.39,-409.28 877.35,-388.03"/>
<polygon fill="black" stroke="black" points="878.64,-390.73 885.23,-382.43 874.91,-384.81 878.64,-390.73"/>
<text text-anchor="middle" x="775.1" y="-490.7" font-family="Times,serif" font-size="14.00">⊆</text>
</g>
<!-- N14 -->
<g id="node15" class="node">
<title>N14</title>
<ellipse fill="none" stroke="black" cx="437.22" cy="-453" rx="83.6" ry="18"/>
<text text-anchor="middle" x="437.22" y="-447.95" font-family="Times,serif" font-size="14.00">rustc_mir_dataflow</text>
</g>
<!-- N2&#45;&gt;N14 -->
<g id="edge50" class="edge">
<title>N2&#45;&gt;N14</title>
<path fill="none" stroke="black" d="M549.78,-608.88C527.78,-578.61 481.92,-515.51 456.04,-479.9"/>
<polygon fill="black" stroke="black" points="458.32,-478.08 449.61,-472.05 452.66,-482.2 458.32,-478.08"/>
<text text-anchor="middle" x="517.1" y="-534.2" font-family="Times,serif" font-size="14.00">⊆</text>
</g>
<!-- N20 -->
<g id="node21" class="node">
<title>N20</title>
<ellipse fill="none" stroke="black" cx="1061.22" cy="-540" rx="51.86" ry="18"/>
<text text-anchor="middle" x="1061.22" y="-534.95" font-family="Times,serif" font-size="14.00">rustc_traits</text>
</g>
<!-- N2&#45;&gt;N20 -->
<g id="edge51" class="edge">
<title>N2&#45;&gt;N20</title>
<path fill="none" stroke="black" d="M618.86,-616.4C696.37,-603.26 839.84,-578.91 962.22,-558 976.06,-555.64 990.98,-553.08 1004.93,-550.68"/>
<polygon fill="black" stroke="black" points="1005.12,-554.03 1014.38,-548.89 1003.94,-547.13 1005.12,-554.03"/>
<text text-anchor="middle" x="857.1" y="-577.7" font-family="Times,serif" font-size="14.00">⊆</text>
</g>
<!-- N3&#45;&gt;N0 -->
<g id="edge19" class="edge">
<title>N3&#45;&gt;N0</title>
<path fill="none" stroke="black" d="M373.65,-523.09C339.28,-502.2 287.22,-462.04 287.22,-410.5 287.22,-410.5 287.22,-410.5 287.22,-191 287.22,-131.49 1219.51,-111.12 1457.46,-106.89"/>
<polygon fill="black" stroke="black" points="1457.32,-110.38 1467.26,-106.7 1457.2,-103.38 1457.32,-110.38"/>
<text text-anchor="middle" x="292.1" y="-316.7" font-family="Times,serif" font-size="14.00">⊆</text>
</g>
<!-- N3&#45;&gt;N6 -->
<g id="edge20" class="edge">
<title>N3&#45;&gt;N6</title>
<path fill="none" stroke="black" d="M382.57,-522.39C368.8,-509.91 351.87,-491.5 344.22,-471 338.62,-456.01 338.36,-449.89 344.22,-435 353.89,-410.42 485.98,-277.97 506.22,-261 526.91,-243.65 531.47,-236.12 557.22,-228 660.28,-195.48 936.54,-227.33 1043.22,-210 1047.95,-209.23 1052.84,-208.2 1057.68,-207.01"/>
<polygon fill="black" stroke="black" points="1058.35,-210.19 1067.12,-204.24 1056.55,-203.43 1058.35,-210.19"/>
<text text-anchor="middle" x="423.1" y="-360.2" font-family="Times,serif" font-size="14.00">⊆</text>
</g>
<!-- N3&#45;&gt;N10 -->
<g id="edge21" class="edge">
<title>N3&#45;&gt;N10</title>
<path fill="none" stroke="black" d="M455.76,-527.11C483.38,-520.66 517.74,-512.32 548.22,-504 587.99,-493.15 632.74,-479.4 665.43,-469.07"/>
<polygon fill="black" stroke="black" points="666.13,-472.2 674.6,-465.84 664.01,-465.53 666.13,-472.2"/>
<text text-anchor="middle" x="603.1" y="-490.7" font-family="Times,serif" font-size="14.00">⊆</text>
</g>
<!-- N3&#45;&gt;N13 -->
<g id="edge22" class="edge">
<title>N3&#45;&gt;N13</title>
<path fill="none" stroke="black" d="M433,-523.11C495.07,-490.26 636.88,-416.69 689.22,-402 718.35,-393.82 793.29,-382.84 848.5,-375.38"/>
<polygon fill="black" stroke="black" points="848.82,-378.73 858.26,-373.93 847.89,-371.79 848.82,-378.73"/>
<text text-anchor="middle" x="611.1" y="-447.2" font-family="Times,serif" font-size="14.00">⊆</text>
</g>
<!-- N3&#45;&gt;N14 -->
<g id="edge23" class="edge">
<title>N3&#45;&gt;N14</title>
<path fill="none" stroke="black" d="M410.1,-521.8C414.76,-510.16 421,-494.55 426.33,-481.24"/>
<polygon fill="black" stroke="black" points="429.89,-482.76 430.35,-472.18 423.39,-480.16 429.89,-482.76"/>
<text text-anchor="middle" x="428.1" y="-490.7" font-family="Times,serif" font-size="14.00">⊆</text>
</g>
<!-- N4 -->
<g id="node5" class="node">
<title>N4</title>
<ellipse fill="none" stroke="black" cx="877.22" cy="-801" rx="77.45" ry="18"/>
<text text-anchor="middle" x="877.22" y="-795.95" font-family="Times,serif" font-size="14.00">rustc_driver_impl</text>
</g>
<!-- N4&#45;&gt;N0 -->
<g id="edge24" class="edge">
<title>N4&#45;&gt;N0</title>
<path fill="none" stroke="black" d="M954.72,-799.27C1190.38,-796.8 1888.36,-787.65 1988.22,-765 2040.2,-753.21 2097.22,-768.3 2097.22,-715 2097.22,-715 2097.22,-715 2097.22,-408.5 2097.22,-292.42 2083.66,-230.44 1982.22,-174 1953.77,-158.17 1942.7,-164.28 1911.22,-156 1886.72,-149.55 1881.13,-145.63 1856.22,-141 1754.89,-122.16 1634.75,-112.85 1566.6,-108.76"/>
<polygon fill="black" stroke="black" points="1566.91,-105.21 1556.72,-108.12 1566.5,-112.2 1566.91,-105.21"/>
<text text-anchor="middle" x="2102.1" y="-447.2" font-family="Times,serif" font-size="14.00">⊆</text>
</g>
<!-- N4&#45;&gt;N1 -->
<g id="edge25" class="edge">
<title>N4&#45;&gt;N1</title>
<path fill="none" stroke="black" d="M952.71,-796.7C1035.81,-790.95 1172.1,-775.18 1281.22,-732 1386.44,-690.36 1439.77,-690.74 1493.22,-591 1511.81,-556.32 1498.81,-509.9 1487.05,-480.98"/>
<polygon fill="black" stroke="black" points="1490,-479.98 1482.84,-472.17 1483.57,-482.74 1490,-479.98"/>
<text text-anchor="middle" x="1487.1" y="-621.2" font-family="Times,serif" font-size="14.00">⊆</text>
</g>
<!-- N4&#45;&gt;N2 -->
<g id="edge26" class="edge">
<title>N4&#45;&gt;N2</title>
<path fill="none" stroke="black" d="M802.74,-795.59C744.92,-790.93 670.47,-781.83 645.22,-765 606.1,-738.92 582.45,-687.54 570.9,-655.64"/>
<polygon fill="black" stroke="black" points="573.88,-654.56 567.31,-646.25 567.27,-656.84 573.88,-654.56"/>
<text text-anchor="middle" x="616.1" y="-708.2" font-family="Times,serif" font-size="14.00">⊆</text>
</g>
<!-- N4&#45;&gt;N3 -->
<g id="edge27" class="edge">
<title>N4&#45;&gt;N3</title>
<path fill="none" stroke="black" d="M800.46,-797.82C749.22,-794.35 681.07,-785.78 624.22,-765 530.41,-730.72 497.11,-722.59 434.22,-645 416.56,-623.21 408.96,-591.6 405.69,-568.96"/>
<polygon fill="black" stroke="black" points="409.07,-568.83 404.37,-559.34 402.13,-569.69 409.07,-568.83"/>
<text text-anchor="middle" x="468.1" y="-664.7" font-family="Times,serif" font-size="14.00">⊆</text>
</g>
<!-- N5 -->
<g id="node6" class="node">
<title>N5</title>
<ellipse fill="none" stroke="black" cx="1933.22" cy="-366" rx="60.05" ry="18"/>
<text text-anchor="middle" x="1933.22" y="-360.95" font-family="Times,serif" font-size="14.00">rustc_expand</text>
</g>
<!-- N4&#45;&gt;N5 -->
<g id="edge28" class="edge">
<title>N4&#45;&gt;N5</title>
<path fill="none" stroke="black" d="M954.7,-799.16C1147.06,-796.74 1642.75,-788.36 1806.22,-765 1896.5,-752.1 2005.22,-806.19 2005.22,-715 2005.22,-715 2005.22,-715 2005.22,-452 2005.22,-426.29 1985.8,-404.36 1967.13,-389.22"/>
<polygon fill="black" stroke="black" points="1969.47,-385.83 1959.4,-382.54 1965.22,-391.4 1969.47,-385.83"/>
<text text-anchor="middle" x="2010.1" y="-577.7" font-family="Times,serif" font-size="14.00">⊆</text>
</g>
<!-- N4&#45;&gt;N6 -->
<g id="edge29" class="edge">
<title>N4&#45;&gt;N6</title>
<path fill="none" stroke="black" d="M800.4,-798.06C625.62,-792.64 213.22,-773.62 213.22,-715 213.22,-715 213.22,-715 213.22,-582.5 213.22,-477.7 423.5,-256.93 524.22,-228 635.14,-196.14 929.29,-228.37 1043.22,-210 1047.95,-209.24 1052.84,-208.21 1057.68,-207.02"/>
<polygon fill="black" stroke="black" points="1058.35,-210.2 1067.12,-204.25 1056.55,-203.44 1058.35,-210.2"/>
<text text-anchor="middle" x="251.1" y="-490.7" font-family="Times,serif" font-size="14.00">⊆</text>
</g>
<!-- N7 -->
<g id="node8" class="node">
<title>N7</title>
<ellipse fill="none" stroke="black" cx="875.22" cy="-540" rx="77.97" ry="18"/>
<text text-anchor="middle" x="875.22" y="-534.95" font-family="Times,serif" font-size="14.00">rustc_hir_analysis</text>
</g>
<!-- N4&#45;&gt;N7 -->
<g id="edge30" class="edge">
<title>N4&#45;&gt;N7</title>
<path fill="none" stroke="black" d="M876.44,-782.66C874.88,-746.86 871.41,-662.15 870.22,-591 870.11,-584.33 869.75,-582.65 870.22,-576 870.38,-573.75 870.6,-571.43 870.85,-569.1"/>
<polygon fill="black" stroke="black" points="874.42,-569.76 872.24,-559.39 867.48,-568.86 874.42,-569.76"/>
<text text-anchor="middle" x="877.1" y="-664.7" font-family="Times,serif" font-size="14.00">⊆</text>
</g>
<!-- N8 -->
<g id="node9" class="node">
<title>N8</title>
<ellipse fill="none" stroke="black" cx="991.22" cy="-627" rx="72.85" ry="18"/>
<text text-anchor="middle" x="991.22" y="-621.95" font-family="Times,serif" font-size="14.00">rustc_hir_typeck</text>
</g>
<!-- N4&#45;&gt;N8 -->
<g id="edge31" class="edge">
<title>N4&#45;&gt;N8</title>
<path fill="none" stroke="black" d="M888.57,-782.88C908.63,-752.61 950.45,-689.51 974.06,-653.9"/>
<polygon fill="black" stroke="black" points="977.31,-656.32 979.92,-646.05 971.48,-652.45 977.31,-656.32"/>
<text text-anchor="middle" x="950.1" y="-708.2" font-family="Times,serif" font-size="14.00">⊆</text>
</g>
<!-- N9 -->
<g id="node10" class="node">
<title>N9</title>
<ellipse fill="none" stroke="black" cx="144.22" cy="-453" rx="77.45" ry="18"/>
<text text-anchor="middle" x="144.22" y="-447.95" font-family="Times,serif" font-size="14.00">rustc_incremental</text>
</g>
<!-- N4&#45;&gt;N9 -->
<g id="edge32" class="edge">
<title>N4&#45;&gt;N9</title>
<path fill="none" stroke="black" d="M799.6,-799.98C646.42,-799.27 310.49,-794.32 199.22,-765 151.17,-752.34 99.22,-764.69 99.22,-715 99.22,-715 99.22,-715 99.22,-539 99.22,-517.23 110.9,-495.58 122.35,-479.58"/>
<polygon fill="black" stroke="black" points="125.72,-481.93 128.99,-471.85 120.15,-477.7 125.72,-481.93"/>
<text text-anchor="middle" x="104.1" y="-621.2" font-family="Times,serif" font-size="14.00">⊆</text>
</g>
<!-- N4&#45;&gt;N10 -->
<g id="edge33" class="edge">
<title>N4&#45;&gt;N10</title>
<path fill="none" stroke="black" d="M862.66,-782.85C831.39,-745.02 757.79,-650.43 722.22,-558 712.82,-533.58 710.84,-503.65 710.9,-482.18"/>
<polygon fill="black" stroke="black" points="714.42,-482.27 711.11,-472.21 707.42,-482.14 714.42,-482.27"/>
<text text-anchor="middle" x="768.1" y="-621.2" font-family="Times,serif" font-size="14.00">⊆</text>
</g>
<!-- N11 -->
<g id="node12" class="node">
<title>N11</title>
<ellipse fill="none" stroke="black" cx="1206.22" cy="-714" rx="65.68" ry="18"/>
<text text-anchor="middle" x="1206.22" y="-708.95" font-family="Times,serif" font-size="14.00">rustc_interface</text>
</g>
<!-- N4&#45;&gt;N11 -->
<g id="edge34" class="edge">
<title>N4&#45;&gt;N11</title>
<path fill="none" stroke="black" d="M927.55,-787C987.27,-771.57 1086.62,-745.9 1149.16,-729.74"/>
<polygon fill="black" stroke="black" points="1149.82,-732.93 1158.63,-727.04 1148.07,-726.15 1149.82,-732.93"/>
<text text-anchor="middle" x="1066.1" y="-751.7" font-family="Times,serif" font-size="14.00">⊆</text>
</g>
<!-- N4&#45;&gt;N13 -->
<g id="edge35" class="edge">
<title>N4&#45;&gt;N13</title>
<path fill="none" stroke="black" d="M855.24,-783.33C837.96,-769.96 813.48,-750.43 793.22,-732 711.39,-657.56 658.14,-659.97 615.22,-558 609.01,-543.25 612.02,-537.68 615.22,-522 623.61,-480.83 621.82,-464 652.22,-435 667.48,-420.44 720.84,-407.44 741.22,-402 787.81,-389.56 801.07,-394.11 848.22,-384 852.04,-383.18 855.97,-382.29 859.92,-381.35"/>
<polygon fill="black" stroke="black" points="860.47,-384.57 869.34,-378.79 858.8,-377.77 860.47,-384.57"/>
<text text-anchor="middle" x="635.1" y="-577.7" font-family="Times,serif" font-size="14.00">⊆</text>
</g>
<!-- N4&#45;&gt;N14 -->
<g id="edge36" class="edge">
<title>N4&#45;&gt;N14</title>
<path fill="none" stroke="black" d="M803.05,-795.46C742.33,-790.76 654.49,-781.66 579.22,-765 433.58,-732.76 358.76,-724.5 292.22,-591 266.51,-539.42 335.49,-497.01 386.93,-473.64"/>
<polygon fill="black" stroke="black" points="388.21,-476.46 395.94,-469.23 385.38,-470.06 388.21,-476.46"/>
<text text-anchor="middle" x="329.1" y="-621.2" font-family="Times,serif" font-size="14.00">⊆</text>
</g>
<!-- N15 -->
<g id="node16" class="node">
<title>N15</title>
<ellipse fill="none" stroke="black" cx="1901.22" cy="-279" rx="52.89" ry="18"/>
<text text-anchor="middle" x="1901.22" y="-273.95" font-family="Times,serif" font-size="14.00">rustc_parse</text>
</g>
<!-- N4&#45;&gt;N15 -->
<g id="edge37" class="edge">
<title>N4&#45;&gt;N15</title>
<path fill="none" stroke="black" d="M954.95,-800.12C1163.14,-800.01 1730.04,-796.71 1914.22,-765 1978.1,-754 2051.22,-779.82 2051.22,-715 2051.22,-715 2051.22,-715 2051.22,-495.5 2051.22,-426.42 2044,-403.01 2002.22,-348 1986.44,-327.22 1962.39,-310.67 1941.72,-299.1"/>
<polygon fill="black" stroke="black" points="1943.66,-295.63 1933.2,-293.98 1940.35,-301.8 1943.66,-295.63"/>
<text text-anchor="middle" x="2056.1" y="-534.2" font-family="Times,serif" font-size="14.00">⊆</text>
</g>
<!-- N16 -->
<g id="node17" class="node">
<title>N16</title>
<ellipse fill="none" stroke="black" cx="1844.22" cy="-453" rx="56.98" ry="18"/>
<text text-anchor="middle" x="1844.22" y="-447.95" font-family="Times,serif" font-size="14.00">rustc_passes</text>
</g>
<!-- N4&#45;&gt;N16 -->
<g id="edge38" class="edge">
<title>N4&#45;&gt;N16</title>
<path fill="none" stroke="black" d="M954.32,-798.73C1130.08,-795.5 1556.17,-785.74 1698.22,-765 1788.03,-751.89 1896.22,-805.76 1896.22,-715 1896.22,-715 1896.22,-715 1896.22,-539 1896.22,-516.23 1882.47,-494.4 1869.12,-478.57"/>
<polygon fill="black" stroke="black" points="1872.1,-476.54 1862.82,-471.42 1866.89,-481.21 1872.1,-476.54"/>
<text text-anchor="middle" x="1901.1" y="-621.2" font-family="Times,serif" font-size="14.00">⊆</text>
</g>
<!-- N18 -->
<g id="node19" class="node">
<title>N18</title>
<ellipse fill="none" stroke="black" cx="1442.22" cy="-279" rx="85.13" ry="18"/>
<text text-anchor="middle" x="1442.22" y="-273.95" font-family="Times,serif" font-size="14.00">rustc_query_system</text>
</g>
<!-- N4&#45;&gt;N18 -->
<g id="edge39" class="edge">
<title>N4&#45;&gt;N18</title>
<path fill="none" stroke="black" d="M954.96,-799.86C1157.22,-798.47 1684.22,-787.86 1684.22,-715 1684.22,-715 1684.22,-715 1684.22,-582.5 1684.22,-516.46 1733.54,-493.15 1702.22,-435 1661.74,-359.84 1567.93,-317.65 1504.78,-296.85"/>
<polygon fill="black" stroke="black" points="1506.12,-293.29 1495.53,-293.58 1503.99,-299.96 1506.12,-293.29"/>
<text text-anchor="middle" x="1702.1" y="-534.2" font-family="Times,serif" font-size="14.00">⊆</text>
</g>
<!-- N19 -->
<g id="node20" class="node">
<title>N19</title>
<ellipse fill="none" stroke="black" cx="1633.22" cy="-453" rx="60.05" ry="18"/>
<text text-anchor="middle" x="1633.22" y="-447.95" font-family="Times,serif" font-size="14.00">rustc_resolve</text>
</g>
<!-- N4&#45;&gt;N19 -->
<g id="edge40" class="edge">
<title>N4&#45;&gt;N19</title>
<path fill="none" stroke="black" d="M954.57,-799.29C1147.25,-796.51 1633.22,-782.77 1633.22,-715 1633.22,-715 1633.22,-715 1633.22,-539 1633.22,-519.94 1633.22,-498.47 1633.22,-481.87"/>
<polygon fill="black" stroke="black" points="1636.72,-482.26 1633.22,-472.26 1629.72,-482.26 1636.72,-482.26"/>
<text text-anchor="middle" x="1638.1" y="-621.2" font-family="Times,serif" font-size="14.00">⊆</text>
</g>
<!-- N5&#45;&gt;N0 -->
<g id="edge16" class="edge">
<title>N5&#45;&gt;N0</title>
<path fill="none" stroke="black" d="M1902.71,-350.04C1881.9,-338.33 1855.3,-320.17 1839.22,-297 1798.21,-237.92 1850.66,-188 1796.22,-141 1762.91,-112.24 1639.7,-106.53 1566.96,-105.73"/>
<polygon fill="black" stroke="black" points="1567.21,-102.23 1557.18,-105.65 1567.15,-109.23 1567.21,-102.23"/>
<text text-anchor="middle" x="1826.1" y="-229.7" font-family="Times,serif" font-size="14.00">⊆</text>
</g>
<!-- N5&#45;&gt;N12 -->
<g id="edge17" class="edge">
<title>N5&#45;&gt;N12</title>
<path fill="none" stroke="black" d="M1943.22,-347.78C1950.37,-334.42 1959.39,-315.18 1963.22,-297 1982.34,-206.28 1953.59,-96.56 1937.65,-46.41"/>
<polygon fill="black" stroke="black" points="1940.71,-45.51 1934.28,-37.09 1934.06,-47.68 1940.71,-45.51"/>
<text text-anchor="middle" x="1973.1" y="-186.2" font-family="Times,serif" font-size="14.00">⊆</text>
</g>
<!-- N5&#45;&gt;N15 -->
<g id="edge18" class="edge">
<title>N5&#45;&gt;N15</title>
<path fill="none" stroke="black" d="M1926.74,-347.8C1922.36,-336.16 1916.49,-320.55 1911.47,-307.24"/>
<polygon fill="black" stroke="black" points="1914.49,-306.3 1907.69,-298.18 1907.93,-308.77 1914.49,-306.3"/>
<text text-anchor="middle" x="1923.1" y="-316.7" font-family="Times,serif" font-size="14.00">⊆</text>
</g>
<!-- N6&#45;&gt;N0 -->
<g id="edge94" class="edge">
<title>N6&#45;&gt;N0</title>
<path fill="none" stroke="black" d="M1118.21,-175.03C1131.59,-163.47 1151.3,-148.6 1171.47,-141 1222.48,-121.77 1375.17,-112.14 1457.76,-108.21"/>
<polygon fill="black" stroke="black" points="1457.86,-111.67 1467.68,-107.71 1457.53,-104.67 1457.86,-111.67"/>
<text text-anchor="middle" x="1176.1" y="-142.7" font-family="Times,serif" font-size="14.00">⊆</text>
</g>
<!-- N7&#45;&gt;N0 -->
<g id="edge1" class="edge">
<title>N7&#45;&gt;N0</title>
<path fill="none" stroke="black" d="M906.89,-523.26C917.68,-517.55 929.67,-510.82 940.22,-504 960.45,-490.91 964.83,-486.56 983.22,-471 1010.11,-448.25 1020.2,-445.26 1041.22,-417 1061.62,-389.57 1052.54,-373.58 1075.22,-348 1169.2,-242.03 1216.87,-239.96 1342.22,-174 1383.65,-152.2 1433.67,-132.98 1468.69,-120.58"/>
<polygon fill="black" stroke="black" points="1469.76,-123.57 1478.05,-116.96 1467.45,-116.96 1469.76,-123.57"/>
<text text-anchor="middle" x="1110.1" y="-316.7" font-family="Times,serif" font-size="14.00">⊆</text>
</g>
<!-- N7&#45;&gt;N6 -->
<g id="edge2" class="edge">
<title>N7&#45;&gt;N6</title>
<path fill="none" stroke="black" d="M864.09,-521.93C842.82,-486.96 801.32,-405.6 834.47,-348 859.82,-303.95 994.15,-240.04 1061.97,-209.92"/>
<polygon fill="black" stroke="black" points="1063.13,-212.79 1070.87,-205.55 1060.31,-206.38 1063.13,-212.79"/>
<text text-anchor="middle" x="839.1" y="-360.2" font-family="Times,serif" font-size="14.00">⊆</text>
</g>
<!-- N7&#45;&gt;N10 -->
<g id="edge3" class="edge">
<title>N7&#45;&gt;N10</title>
<path fill="none" stroke="black" d="M842.19,-523.34C830.45,-517.53 817.23,-510.72 805.47,-504 794.79,-497.9 792.9,-495.09 782.22,-489 772.48,-483.45 761.75,-477.84 751.68,-472.79"/>
<polygon fill="black" stroke="black" points="753.4,-469.24 742.89,-467.94 750.3,-475.51 753.4,-469.24"/>
<text text-anchor="middle" x="810.1" y="-490.7" font-family="Times,serif" font-size="14.00">⊆</text>
</g>
<!-- N7&#45;&gt;N13 -->
<g id="edge4" class="edge">
<title>N7&#45;&gt;N13</title>
<path fill="none" stroke="black" d="M876.8,-521.56C878.86,-500.79 883,-465.11 889.47,-435 892.68,-420.05 894.21,-416.45 899.22,-402 900.07,-399.55 900.99,-397.02 901.95,-394.49"/>
<polygon fill="black" stroke="black" points="905.54,-395.91 905.92,-385.33 899.02,-393.37 905.54,-395.91"/>
<text text-anchor="middle" x="894.1" y="-447.2" font-family="Times,serif" font-size="14.00">⊆</text>
</g>
<!-- N8&#45;&gt;N0 -->
<g id="edge71" class="edge">
<title>N8&#45;&gt;N0</title>
<path fill="none" stroke="black" d="M1049.26,-615.73C1208.94,-587.16 1646.64,-506.47 1702.22,-471 1813.99,-399.67 1730.93,-293.84 1674.22,-174 1666.68,-158.07 1666.63,-151.15 1652.22,-141 1627.09,-123.29 1593.88,-114.52 1566.12,-110.18"/>
<polygon fill="black" stroke="black" points="1566.77,-106.6 1556.38,-108.68 1565.8,-113.53 1566.77,-106.6"/>
<text text-anchor="middle" x="1762.1" y="-360.2" font-family="Times,serif" font-size="14.00">⊆</text>
</g>
<!-- N8&#45;&gt;N6 -->
<g id="edge72" class="edge">
<title>N8&#45;&gt;N6</title>
<path fill="none" stroke="black" d="M1054.52,-617.93C1091.73,-609.57 1135.92,-592.57 1159.22,-558 1172.91,-537.7 1189.55,-603.09 1110.22,-228 1109.72,-225.66 1109.18,-223.23 1108.6,-220.81"/>
<polygon fill="black" stroke="black" points="1111.82,-220.23 1106,-211.38 1105.03,-221.93 1111.82,-220.23"/>
<text text-anchor="middle" x="1154.1" y="-403.7" font-family="Times,serif" font-size="14.00">⊆</text>
</g>
<!-- N8&#45;&gt;N7 -->
<g id="edge73" class="edge">
<title>N8&#45;&gt;N7</title>
<path fill="none" stroke="black" d="M973.7,-609.12C962.78,-598.98 948.18,-586.13 934.22,-576 927.86,-571.38 920.86,-566.82 913.96,-562.59"/>
<polygon fill="black" stroke="black" points="916.09,-559.18 905.71,-557.06 912.49,-565.19 916.09,-559.18"/>
<text text-anchor="middle" x="957.1" y="-577.7" font-family="Times,serif" font-size="14.00">⊆</text>
</g>
<!-- N8&#45;&gt;N10 -->
<g id="edge74" class="edge">
<title>N8&#45;&gt;N10</title>
<path fill="none" stroke="black" d="M936.54,-614.81C925.85,-612.76 914.7,-610.73 904.22,-609 874.79,-604.14 794.98,-609.03 771.22,-591 736.5,-564.64 721.93,-513.72 716.02,-481.92"/>
<polygon fill="black" stroke="black" points="719.32,-481.44 714.22,-472.16 712.42,-482.6 719.32,-481.44"/>
<text text-anchor="middle" x="747.1" y="-534.2" font-family="Times,serif" font-size="14.00">⊆</text>
</g>
<!-- N8&#45;&gt;N13 -->
<g id="edge75" class="edge">
<title>N8&#45;&gt;N13</title>
<path fill="none" stroke="black" d="M990.58,-608.58C988.89,-586.18 982.93,-547.19 962.22,-522 950.92,-508.26 936.52,-518.68 926.47,-504 904.42,-471.8 905.11,-424.92 908.5,-395.21"/>
<polygon fill="black" stroke="black" points="912.1,-395.73 909.95,-385.35 905.16,-394.8 912.1,-395.73"/>
<text text-anchor="middle" x="931.1" y="-490.7" font-family="Times,serif" font-size="14.00">⊆</text>
</g>
<!-- N9&#45;&gt;N0 -->
<g id="edge91" class="edge">
<title>N9&#45;&gt;N0</title>
<path fill="none" stroke="black" d="M153.54,-434.64C161.69,-417.84 172.22,-391.39 172.22,-367 172.22,-367 172.22,-367 172.22,-191 172.22,-140.91 224.61,-153.1 273.22,-141 388.92,-112.2 1232.96,-107.03 1457.48,-106.17"/>
<polygon fill="black" stroke="black" points="1457.33,-109.66 1467.32,-106.13 1457.31,-102.66 1457.33,-109.66"/>
<text text-anchor="middle" x="177.1" y="-273.2" font-family="Times,serif" font-size="14.00">⊆</text>
</g>
<!-- N9&#45;&gt;N6 -->
<g id="edge92" class="edge">
<title>N9&#45;&gt;N6</title>
<path fill="none" stroke="black" d="M166.19,-435.63C172.97,-430.09 180.23,-423.61 186.22,-417 223.01,-376.4 209.58,-344.95 255.47,-315 292.46,-290.86 313.05,-315.38 353.22,-297 397.78,-276.61 393.24,-244.94 439.22,-228 502.22,-204.79 976.91,-220.53 1043.22,-210 1048.01,-209.24 1052.97,-208.2 1057.87,-207"/>
<polygon fill="black" stroke="black" points="1058.67,-210.15 1067.43,-204.19 1056.86,-203.38 1058.67,-210.15"/>
<text text-anchor="middle" x="261.1" y="-316.7" font-family="Times,serif" font-size="14.00">⊆</text>
</g>
<!-- N9&#45;&gt;N13 -->
<g id="edge93" class="edge">
<title>N9&#45;&gt;N13</title>
<path fill="none" stroke="black" d="M210.58,-443.34C293.17,-432.74 438.58,-414.63 563.47,-402 659.64,-392.27 684.09,-394.13 780.22,-384 802.7,-381.63 827.26,-378.61 849.09,-375.78"/>
<polygon fill="black" stroke="black" points="849.43,-379.13 858.89,-374.36 848.52,-372.19 849.43,-379.13"/>
<text text-anchor="middle" x="569.1" y="-403.7" font-family="Times,serif" font-size="14.00">⊆</text>
</g>
<!-- N10&#45;&gt;N6 -->
<g id="edge52" class="edge">
<title>N10&#45;&gt;N6</title>
<path fill="none" stroke="black" d="M709.18,-434.81C702.8,-392.49 693.09,-282.76 752.22,-228 773.37,-208.42 954.08,-198.66 1046.8,-194.9"/>
<polygon fill="black" stroke="black" points="1046.8,-198.37 1056.66,-194.47 1046.53,-191.37 1046.8,-198.37"/>
<text text-anchor="middle" x="713.1" y="-316.7" font-family="Times,serif" font-size="14.00">⊆</text>
</g>
<!-- N10&#45;&gt;N13 -->
<g id="edge53" class="edge">
<title>N10&#45;&gt;N13</title>
<path fill="none" stroke="black" d="M726.11,-435.71C736.43,-424.61 751.45,-410.45 767.47,-402 792.25,-388.92 821.97,-380.65 848.08,-375.46"/>
<polygon fill="black" stroke="black" points="848.46,-378.77 857.65,-373.49 847.18,-371.88 848.46,-378.77"/>
<text text-anchor="middle" x="772.1" y="-403.7" font-family="Times,serif" font-size="14.00">⊆</text>
</g>
<!-- N11&#45;&gt;N0 -->
<g id="edge76" class="edge">
<title>N11&#45;&gt;N0</title>
<path fill="none" stroke="black" d="M1143.57,-708.1C1093.66,-704.34 1022,-699.26 959.22,-696 731.39,-684.17 672.52,-706.95 446.22,-678 379.37,-669.45 360.46,-670.83 298.22,-645 120.57,-571.27 -57.68,-491.74 18.22,-315 61.13,-215.08 90.44,-184.23 190.22,-141 249.16,-115.47 1215.48,-107.83 1457.57,-106.31"/>
<polygon fill="black" stroke="black" points="1457.23,-109.81 1467.21,-106.24 1457.19,-102.81 1457.23,-109.81"/>
<text text-anchor="middle" x="7.1" y="-403.7" font-family="Times,serif" font-size="14.00">⊆</text>
</g>
<!-- N11&#45;&gt;N1 -->
<g id="edge77" class="edge">
<title>N11&#45;&gt;N1</title>
<path fill="none" stroke="black" d="M1251.12,-700.5C1266.02,-695.05 1282.13,-687.66 1295.22,-678 1370.98,-622.11 1432.49,-526.54 1459.47,-480.43"/>
<polygon fill="black" stroke="black" points="1462.87,-482.52 1464.84,-472.11 1456.81,-479.03 1462.87,-482.52"/>
<text text-anchor="middle" x="1398.1" y="-577.7" font-family="Times,serif" font-size="14.00">⊆</text>
</g>
<!-- N11&#45;&gt;N2 -->
<g id="edge78" class="edge">
<title>N11&#45;&gt;N2</title>
<path fill="none" stroke="black" d="M1141.83,-709.89C1061.4,-705.44 919.72,-695.78 799.47,-678 738.3,-668.96 669.22,-653.83 621.44,-642.58"/>
<polygon fill="black" stroke="black" points="622.52,-639 611.98,-640.1 620.9,-645.81 622.52,-639"/>
<text text-anchor="middle" x="804.1" y="-664.7" font-family="Times,serif" font-size="14.00">⊆</text>
</g>
<!-- N11&#45;&gt;N3 -->
<g id="edge79" class="edge">
<title>N11&#45;&gt;N3</title>
<path fill="none" stroke="black" d="M1142.98,-708.59C1015.31,-699.68 737.08,-680.17 716.22,-678 608.36,-666.8 566.75,-701.95 474.47,-645 445.46,-627.1 425.38,-592.48 414.1,-568.12"/>
<polygon fill="black" stroke="black" points="417.04,-567.12 409.8,-559.38 410.63,-569.94 417.04,-567.12"/>
<text text-anchor="middle" x="480.1" y="-621.2" font-family="Times,serif" font-size="14.00">⊆</text>
</g>
<!-- N11&#45;&gt;N5 -->
<g id="edge80" class="edge">
<title>N11&#45;&gt;N5</title>
<path fill="none" stroke="black" d="M1272.08,-712.8C1415.84,-711.84 1753.73,-706.51 1864.22,-678 1913.49,-665.29 1967.22,-678.89 1967.22,-628 1967.22,-628 1967.22,-628 1967.22,-452 1967.22,-431.34 1958.45,-409.74 1949.82,-393.48"/>
<polygon fill="black" stroke="black" points="1952.5,-392.11 1944.54,-385.11 1946.4,-395.54 1952.5,-392.11"/>
<text text-anchor="middle" x="1972.1" y="-534.2" font-family="Times,serif" font-size="14.00">⊆</text>
</g>
<!-- N11&#45;&gt;N6 -->
<g id="edge81" class="edge">
<title>N11&#45;&gt;N6</title>
<path fill="none" stroke="black" d="M1207.41,-695.85C1207.87,-686.19 1208.1,-673.9 1207.22,-663 1192.63,-482 1176.53,-437.59 1134.22,-261 1130.68,-246.22 1131.61,-241.8 1125.22,-228 1123.73,-224.79 1121.96,-221.55 1120.06,-218.41"/>
<polygon fill="black" stroke="black" points="1122.56,-216.84 1114.14,-210.4 1116.71,-220.68 1122.56,-216.84"/>
<text text-anchor="middle" x="1187.1" y="-447.2" font-family="Times,serif" font-size="14.00">⊆</text>
</g>
<!-- N11&#45;&gt;N7 -->
<g id="edge82" class="edge">
<title>N11&#45;&gt;N7</title>
<path fill="none" stroke="black" d="M1145.07,-707.12C1065.79,-698.24 933.6,-678.76 899.47,-645 879.53,-625.28 874.69,-592.56 874.06,-569.08"/>
<polygon fill="black" stroke="black" points="877.56,-569.39 874.05,-559.4 870.56,-569.4 877.56,-569.39"/>
<text text-anchor="middle" x="904.1" y="-621.2" font-family="Times,serif" font-size="14.00">⊆</text>
</g>
<!-- N11&#45;&gt;N8 -->
<g id="edge83" class="edge">
<title>N11&#45;&gt;N8</title>
<path fill="none" stroke="black" d="M1169.75,-698.58C1133.68,-684.32 1078.29,-662.42 1038.78,-646.8"/>
<polygon fill="black" stroke="black" points="1040.18,-643.2 1029.59,-642.78 1037.61,-649.71 1040.18,-643.2"/>
<text text-anchor="middle" x="1116.1" y="-664.7" font-family="Times,serif" font-size="14.00">⊆</text>
</g>
<!-- N11&#45;&gt;N9 -->
<g id="edge84" class="edge">
<title>N11&#45;&gt;N9</title>
<path fill="none" stroke="black" d="M1143.56,-708.18C1093.66,-704.47 1021.99,-699.4 959.22,-696 858.4,-690.53 603.36,-701.74 505.22,-678 363.38,-643.69 225.17,-528.62 169.69,-478.12"/>
<polygon fill="black" stroke="black" points="172.54,-476.06 162.81,-471.87 167.8,-481.21 172.54,-476.06"/>
<text text-anchor="middle" x="318.1" y="-577.7" font-family="Times,serif" font-size="14.00">⊆</text>
</g>
<!-- N11&#45;&gt;N13 -->
<g id="edge85" class="edge">
<title>N11&#45;&gt;N13</title>
<path fill="none" stroke="black" d="M1201.73,-695.67C1191.9,-660.22 1165.84,-578.02 1122.22,-522 1083.93,-472.82 1064.43,-469.06 1012.22,-435 997.9,-425.66 992.6,-426.25 978.22,-417 965.65,-408.92 952.46,-399.06 941.28,-390.24"/>
<polygon fill="black" stroke="black" points="943.78,-386.96 933.79,-383.44 939.41,-392.43 943.78,-386.96"/>
<text text-anchor="middle" x="1150.1" y="-534.2" font-family="Times,serif" font-size="14.00">⊆</text>
</g>
<!-- N11&#45;&gt;N15 -->
<g id="edge86" class="edge">
<title>N11&#45;&gt;N15</title>
<path fill="none" stroke="black" d="M1271.62,-711.61C1359.75,-707.82 1520.22,-694.07 1647.22,-645 1777.95,-594.48 1843.87,-594.45 1910.22,-471 1925.12,-443.27 1915.47,-425.23 1894.22,-402 1883.72,-390.53 1871.88,-397.53 1864.22,-384 1849.93,-358.76 1865.47,-327 1880.57,-305.26"/>
<polygon fill="black" stroke="black" points="1883.83,-307.74 1886.92,-297.61 1878.18,-303.6 1883.83,-307.74"/>
<text text-anchor="middle" x="1904.1" y="-490.7" font-family="Times,serif" font-size="14.00">⊆</text>
</g>
<!-- N11&#45;&gt;N16 -->
<g id="edge87" class="edge">
<title>N11&#45;&gt;N16</title>
<path fill="none" stroke="black" d="M1255.41,-701.77C1282.37,-695.34 1316.3,-686.82 1346.22,-678 1385.85,-666.31 1661.45,-576.85 1698.22,-558 1742.64,-535.23 1788.72,-500.16 1816.93,-477.15"/>
<polygon fill="black" stroke="black" points="1818.6,-479.48 1824.09,-470.42 1814.15,-474.08 1818.6,-479.48"/>
<text text-anchor="middle" x="1656.1" y="-577.7" font-family="Times,serif" font-size="14.00">⊆</text>
</g>
<!-- N17 -->
<g id="node18" class="node">
<title>N17</title>
<ellipse fill="none" stroke="black" cx="1299.22" cy="-453" rx="76.43" ry="18"/>
<text text-anchor="middle" x="1299.22" y="-447.95" font-family="Times,serif" font-size="14.00">rustc_query_impl</text>
</g>
<!-- N11&#45;&gt;N17 -->
<g id="edge88" class="edge">
<title>N11&#45;&gt;N17</title>
<path fill="none" stroke="black" d="M1249.67,-700.05C1260.28,-694.86 1270.49,-687.72 1277.22,-678 1318.44,-618.44 1311.5,-527.69 1304.53,-482.15"/>
<polygon fill="black" stroke="black" points="1307.83,-481.63 1302.75,-472.33 1300.92,-482.77 1307.83,-481.63"/>
<text text-anchor="middle" x="1313.1" y="-577.7" font-family="Times,serif" font-size="14.00">⊆</text>
</g>
<!-- N11&#45;&gt;N19 -->
<g id="edge89" class="edge">
<title>N11&#45;&gt;N19</title>
<path fill="none" stroke="black" d="M1254.61,-701.41C1274.82,-695.68 1298.21,-687.85 1318.22,-678 1434.56,-620.72 1554.75,-522.28 1606.68,-477.46"/>
<polygon fill="black" stroke="black" points="1608.46,-479.69 1613.71,-470.49 1603.87,-474.4 1608.46,-479.69"/>
<text text-anchor="middle" x="1484.1" y="-577.7" font-family="Times,serif" font-size="14.00">⊆</text>
</g>
<!-- N11&#45;&gt;N20 -->
<g id="edge90" class="edge">
<title>N11&#45;&gt;N20</title>
<path fill="none" stroke="black" d="M1192.05,-696.19C1166.43,-665.8 1112.28,-601.57 1082.3,-566.01"/>
<polygon fill="black" stroke="black" points="1084.35,-564.01 1075.23,-558.62 1079,-568.52 1084.35,-564.01"/>
<text text-anchor="middle" x="1152.1" y="-621.2" font-family="Times,serif" font-size="14.00">⊆</text>
</g>
<!-- N13&#45;&gt;N0 -->
<g id="edge63" class="edge">
<title>N13&#45;&gt;N0</title>
<path fill="none" stroke="black" d="M920.81,-347.71C938.02,-310.47 983.59,-222.17 1048.22,-174 1112.12,-126.38 1349.65,-111.82 1457.88,-107.61"/>
<polygon fill="black" stroke="black" points="1457.69,-111.08 1467.56,-107.21 1457.43,-104.09 1457.69,-111.08"/>
<text text-anchor="middle" x="997.1" y="-229.7" font-family="Times,serif" font-size="14.00">⊆</text>
</g>
<!-- N13&#45;&gt;N6 -->
<g id="edge64" class="edge">
<title>N13&#45;&gt;N6</title>
<path fill="none" stroke="black" d="M931.25,-348.51C964.97,-317.66 1037.64,-251.17 1076.13,-215.96"/>
<polygon fill="black" stroke="black" points="1077.78,-219.27 1082.8,-209.94 1073.06,-214.11 1077.78,-219.27"/>
<text text-anchor="middle" x="1030.1" y="-273.2" font-family="Times,serif" font-size="14.00">⊆</text>
</g>
<!-- N13&#45;&gt;N18 -->
<g id="edge65" class="edge">
<title>N13&#45;&gt;N18</title>
<path fill="none" stroke="black" d="M968.93,-359.22C1001.15,-355.9 1042.47,-351.67 1079.22,-348 1161.42,-339.79 1185.95,-356.42 1264.22,-330 1276.23,-325.95 1276.74,-319.81 1288.47,-315 1312.41,-305.19 1339.62,-297.85 1364.44,-292.5"/>
<polygon fill="black" stroke="black" points="1364.83,-295.79 1373.91,-290.33 1363.4,-288.93 1364.83,-295.79"/>
<text text-anchor="middle" x="1293.1" y="-316.7" font-family="Times,serif" font-size="14.00">⊆</text>
</g>
<!-- N14&#45;&gt;N0 -->
<g id="edge12" class="edge">
<title>N14&#45;&gt;N0</title>
<path fill="none" stroke="black" d="M437.04,-434.63C437.79,-404.06 444.38,-341.36 484.22,-315 714.35,-162.72 808.85,-191.07 1080.22,-141 1214.28,-116.27 1374.96,-109.01 1457.43,-106.88"/>
<polygon fill="black" stroke="black" points="1457.39,-110.36 1467.3,-106.62 1457.22,-103.36 1457.39,-110.36"/>
<text text-anchor="middle" x="576.1" y="-273.2" font-family="Times,serif" font-size="14.00">⊆</text>
</g>
<!-- N14&#45;&gt;N6 -->
<g id="edge13" class="edge">
<title>N14&#45;&gt;N6</title>
<path fill="none" stroke="black" d="M442.19,-434.79C455.89,-390.94 498.73,-275.14 581.22,-228 625.82,-202.51 992.52,-218.29 1043.22,-210 1047.95,-209.23 1052.84,-208.19 1057.68,-207"/>
<polygon fill="black" stroke="black" points="1058.35,-210.18 1067.11,-204.22 1056.55,-203.42 1058.35,-210.18"/>
<text text-anchor="middle" x="501.1" y="-316.7" font-family="Times,serif" font-size="14.00">⊆</text>
</g>
<!-- N14&#45;&gt;N13 -->
<g id="edge14" class="edge">
<title>N14&#45;&gt;N13</title>
<path fill="none" stroke="black" d="M501.38,-441.23C540.85,-434.12 587.36,-424.72 606.22,-417 617.6,-412.34 617.9,-406.17 629.47,-402 692.95,-379.12 713.25,-392.28 780.22,-384 802.45,-381.25 826.77,-378.17 848.45,-375.39"/>
<polygon fill="black" stroke="black" points="848.73,-378.75 858.2,-374.01 847.83,-371.81 848.73,-378.75"/>
<text text-anchor="middle" x="634.1" y="-403.7" font-family="Times,serif" font-size="14.00">⊆</text>
</g>
<!-- N15&#45;&gt;N0 -->
<g id="edge5" class="edge">
<title>N15&#45;&gt;N0</title>
<path fill="none" stroke="black" d="M1898.27,-260.67C1892.18,-230.72 1875.18,-169.75 1834.22,-141 1792.35,-111.61 1647.35,-106.31 1566.96,-105.71"/>
<polygon fill="black" stroke="black" points="1567.08,-102.21 1557.06,-105.66 1567.04,-109.21 1567.08,-102.21"/>
<text text-anchor="middle" x="1887.1" y="-186.2" font-family="Times,serif" font-size="14.00">⊆</text>
</g>
<!-- N15&#45;&gt;N12 -->
<g id="edge6" class="edge">
<title>N15&#45;&gt;N12</title>
<path fill="none" stroke="black" d="M1903.86,-260.57C1904.67,-254.97 1905.53,-248.73 1906.22,-243 1914.68,-172.79 1922.17,-89.89 1925.84,-47.34"/>
<polygon fill="black" stroke="black" points="1929.41,-47.72 1926.77,-37.46 1922.43,-47.12 1929.41,-47.72"/>
<text text-anchor="middle" x="1921.1" y="-142.7" font-family="Times,serif" font-size="14.00">⊆</text>
</g>
<!-- N16&#45;&gt;N0 -->
<g id="edge66" class="edge">
<title>N16&#45;&gt;N0</title>
<path fill="none" stroke="black" d="M1822.88,-435.97C1804.95,-420.5 1782.22,-395.31 1782.22,-367 1782.22,-367 1782.22,-367 1782.22,-191 1782.22,-164.62 1772.38,-155.32 1750.22,-141 1720.71,-121.93 1627.16,-112.81 1566.51,-108.79"/>
<polygon fill="black" stroke="black" points="1566.79,-105.24 1556.59,-108.1 1566.35,-112.23 1566.79,-105.24"/>
<text text-anchor="middle" x="1787.1" y="-273.2" font-family="Times,serif" font-size="14.00">⊆</text>
</g>
<!-- N16&#45;&gt;N5 -->
<g id="edge67" class="edge">
<title>N16&#45;&gt;N5</title>
<path fill="none" stroke="black" d="M1854.31,-435.07C1860.94,-424.79 1870.26,-411.8 1880.47,-402 1885.47,-397.21 1891.2,-392.65 1897,-388.51"/>
<polygon fill="black" stroke="black" points="1898.76,-390.87 1905.08,-382.37 1894.84,-385.07 1898.76,-390.87"/>
<text text-anchor="middle" x="1885.1" y="-403.7" font-family="Times,serif" font-size="14.00">⊆</text>
</g>
<!-- N16&#45;&gt;N6 -->
<g id="edge68" class="edge">
<title>N16&#45;&gt;N6</title>
<path fill="none" stroke="black" d="M1804.22,-439.89C1776.84,-429.5 1742.02,-411.72 1722.22,-384 1688.11,-336.25 1720.63,-296.91 1674.22,-261 1633.57,-229.55 1289.83,-204.82 1155.09,-196.25"/>
<polygon fill="black" stroke="black" points="1155.44,-192.7 1145.24,-195.57 1155,-199.69 1155.44,-192.7"/>
<text text-anchor="middle" x="1708.1" y="-316.7" font-family="Times,serif" font-size="14.00">⊆</text>
</g>
<!-- N16&#45;&gt;N12 -->
<g id="edge69" class="edge">
<title>N16&#45;&gt;N12</title>
<path fill="none" stroke="black" d="M1895.67,-444.8C1932.19,-436.71 1978.74,-419.67 2002.22,-384 2075.3,-272.98 1999.62,-215.9 1967.22,-87 1963.45,-72.01 1963.61,-67.58 1956.22,-54 1954.42,-50.69 1952.29,-47.37 1950.04,-44.18"/>
<polygon fill="black" stroke="black" points="1952.32,-42.41 1943.47,-36.59 1946.76,-46.66 1952.32,-42.41"/>
<text text-anchor="middle" x="2029.1" y="-229.7" font-family="Times,serif" font-size="14.00">⊆</text>
</g>
<!-- N16&#45;&gt;N13 -->
<g id="edge70" class="edge">
<title>N16&#45;&gt;N13</title>
<path fill="none" stroke="black" d="M1791.64,-445.55C1764.88,-442.31 1731.82,-438.36 1702.22,-435 1565.87,-419.51 1531.99,-413.24 1395.22,-402 1255.02,-390.48 1219.45,-395.17 1079.22,-384 1046.17,-381.37 1009.49,-377.69 979.04,-374.43"/>
<polygon fill="black" stroke="black" points="979.44,-370.85 969.12,-373.25 978.69,-377.8 979.44,-370.85"/>
<text text-anchor="middle" x="1553.1" y="-403.7" font-family="Times,serif" font-size="14.00">⊆</text>
</g>
<!-- N17&#45;&gt;N0 -->
<g id="edge59" class="edge">
<title>N17&#45;&gt;N0</title>
<path fill="none" stroke="black" d="M1343.09,-438C1399.57,-417.32 1495.29,-372.68 1536.22,-297 1564.7,-244.33 1541.57,-171.84 1525.11,-133.06"/>
<polygon fill="black" stroke="black" points="1527.93,-131.8 1520.69,-124.06 1521.53,-134.62 1527.93,-131.8"/>
<text text-anchor="middle" x="1552.1" y="-273.2" font-family="Times,serif" font-size="14.00">⊆</text>
</g>
<!-- N17&#45;&gt;N6 -->
<g id="edge60" class="edge">
<title>N17&#45;&gt;N6</title>
<path fill="none" stroke="black" d="M1292.13,-434.58C1272.66,-387.45 1217.6,-258.86 1184.22,-228 1173.98,-218.53 1160.81,-211.42 1147.98,-206.16"/>
<polygon fill="black" stroke="black" points="1149.43,-202.59 1138.84,-202.33 1146.96,-209.14 1149.43,-202.59"/>
<text text-anchor="middle" x="1249.1" y="-316.7" font-family="Times,serif" font-size="14.00">⊆</text>
</g>
<!-- N17&#45;&gt;N13 -->
<g id="edge61" class="edge">
<title>N17&#45;&gt;N13</title>
<path fill="none" stroke="black" d="M1243.19,-440.51C1231.97,-438.46 1220.25,-436.51 1209.22,-435 1116.08,-422.26 1087.43,-447.38 998.47,-417 986.83,-413.03 985.75,-408.36 975.22,-402 967.31,-397.22 958.74,-392.25 950.56,-387.61"/>
<polygon fill="black" stroke="black" points="952.63,-384.19 942.2,-382.33 949.19,-390.29 952.63,-384.19"/>
<text text-anchor="middle" x="1003.1" y="-403.7" font-family="Times,serif" font-size="14.00">⊆</text>
</g>
<!-- N17&#45;&gt;N18 -->
<g id="edge62" class="edge">
<title>N17&#45;&gt;N18</title>
<path fill="none" stroke="black" d="M1313.45,-434.88C1338.72,-404.49 1391.53,-340.97 1421.07,-305.44"/>
<polygon fill="black" stroke="black" points="1424.34,-307.98 1428.04,-298.05 1418.96,-303.5 1424.34,-307.98"/>
<text text-anchor="middle" x="1389.1" y="-360.2" font-family="Times,serif" font-size="14.00">⊆</text>
</g>
<!-- N18&#45;&gt;N0 -->
<g id="edge10" class="edge">
<title>N18&#45;&gt;N0</title>
<path fill="none" stroke="black" d="M1449.19,-260.88C1461.4,-230.87 1486.75,-168.58 1501.31,-132.81"/>
<polygon fill="black" stroke="black" points="1504.75,-134.63 1505.28,-124.05 1498.27,-131.99 1504.75,-134.63"/>
<text text-anchor="middle" x="1488.1" y="-186.2" font-family="Times,serif" font-size="14.00">⊆</text>
</g>
<!-- N18&#45;&gt;N6 -->
<g id="edge11" class="edge">
<title>N18&#45;&gt;N6</title>
<path fill="none" stroke="black" d="M1413.74,-261.58C1393.13,-250.42 1364.26,-236.24 1337.22,-228 1276.39,-209.46 1203.63,-200.57 1155.14,-196.42"/>
<polygon fill="black" stroke="black" points="1155.51,-192.86 1145.26,-195.54 1154.95,-199.84 1155.51,-192.86"/>
<text text-anchor="middle" x="1380.1" y="-229.7" font-family="Times,serif" font-size="14.00">⊆</text>
</g>
<!-- N19&#45;&gt;N0 -->
<g id="edge54" class="edge">
<title>N19&#45;&gt;N0</title>
<path fill="none" stroke="black" d="M1630.15,-434.75C1628.93,-425.06 1628.23,-412.78 1630.22,-402 1637,-365.27 1660.22,-360.85 1660.22,-323.5 1660.22,-323.5 1660.22,-323.5 1660.22,-191 1660.22,-145.25 1606.37,-123.76 1563.64,-113.92"/>
<polygon fill="black" stroke="black" points="1564.56,-110.32 1554.05,-111.66 1563.1,-117.17 1564.56,-110.32"/>
<text text-anchor="middle" x="1665.1" y="-273.2" font-family="Times,serif" font-size="14.00">⊆</text>
</g>
<!-- N19&#45;&gt;N5 -->
<g id="edge55" class="edge">
<title>N19&#45;&gt;N5</title>
<path fill="none" stroke="black" d="M1675.88,-439.91C1729.64,-424.68 1822.02,-398.51 1880.25,-382.01"/>
<polygon fill="black" stroke="black" points="1881.04,-385.14 1889.7,-379.05 1879.13,-378.41 1881.04,-385.14"/>
<text text-anchor="middle" x="1805.1" y="-403.7" font-family="Times,serif" font-size="14.00">⊆</text>
</g>
<!-- N19&#45;&gt;N6 -->
<g id="edge56" class="edge">
<title>N19&#45;&gt;N6</title>
<path fill="none" stroke="black" d="M1604.8,-436.79C1553.42,-409.23 1441.71,-349.07 1348.22,-297 1294.14,-266.88 1284.37,-251.8 1227.22,-228 1202.5,-217.71 1173.82,-209.47 1150.07,-203.58"/>
<polygon fill="black" stroke="black" points="1151.07,-199.98 1140.53,-201.04 1149.43,-206.78 1151.07,-199.98"/>
<text text-anchor="middle" x="1409.1" y="-316.7" font-family="Times,serif" font-size="14.00">⊆</text>
</g>
<!-- N19&#45;&gt;N13 -->
<g id="edge57" class="edge">
<title>N19&#45;&gt;N13</title>
<path fill="none" stroke="black" d="M1589.61,-440.3C1581.23,-438.32 1572.48,-436.44 1564.22,-435 1549.91,-432.5 1142.84,-390.58 979.8,-373.83"/>
<polygon fill="black" stroke="black" points="980.26,-370.26 969.96,-372.72 979.55,-377.22 980.26,-370.26"/>
<text text-anchor="middle" x="1386.1" y="-403.7" font-family="Times,serif" font-size="14.00">⊆</text>
</g>
<!-- N19&#45;&gt;N18 -->
<g id="edge58" class="edge">
<title>N19&#45;&gt;N18</title>
<path fill="none" stroke="black" d="M1614.91,-435.51C1581,-404.97 1508.31,-339.52 1468.92,-304.04"/>
<polygon fill="black" stroke="black" points="1471.81,-302.04 1462.04,-297.95 1467.13,-307.24 1471.81,-302.04"/>
<text text-anchor="middle" x="1561.1" y="-360.2" font-family="Times,serif" font-size="14.00">⊆</text>
</g>
<!-- N20&#45;&gt;N0 -->
<g id="edge41" class="edge">
<title>N20&#45;&gt;N0</title>
<path fill="none" stroke="black" d="M1076.27,-522.69C1096.97,-499.89 1134.88,-456.81 1163.22,-417 1193.88,-373.92 1188.75,-353.99 1224.47,-315 1302.15,-230.22 1419.08,-158.19 1477.06,-125.22"/>
<polygon fill="black" stroke="black" points="1478.51,-127.85 1485.51,-119.9 1475.08,-121.76 1478.51,-127.85"/>
<text text-anchor="middle" x="1229.1" y="-316.7" font-family="Times,serif" font-size="14.00">⊆</text>
</g>
<!-- N20&#45;&gt;N6 -->
<g id="edge42" class="edge">
<title>N20&#45;&gt;N6</title>
<path fill="none" stroke="black" d="M1063.2,-521.84C1069.64,-466.16 1089.99,-290.1 1097.97,-221.12"/>
<polygon fill="black" stroke="black" points="1101.55,-221.6 1099.22,-211.26 1094.6,-220.79 1101.55,-221.6"/>
<text text-anchor="middle" x="1087.1" y="-360.2" font-family="Times,serif" font-size="14.00">⊆</text>
</g>
<!-- N20&#45;&gt;N10 -->
<g id="edge43" class="edge">
<title>N20&#45;&gt;N10</title>
<path fill="none" stroke="black" d="M1032.09,-524.64C1008,-513.34 972.62,-498.04 940.22,-489 909.15,-480.33 826.88,-468.71 770.16,-461.29"/>
<polygon fill="black" stroke="black" points="770.9,-457.72 760.53,-459.91 770,-464.67 770.9,-457.72"/>
<text text-anchor="middle" x="985.1" y="-490.7" font-family="Times,serif" font-size="14.00">⊆</text>
</g>
<!-- N20&#45;&gt;N13 -->
<g id="edge44" class="edge">
<title>N20&#45;&gt;N13</title>
<path fill="none" stroke="black" d="M1046.28,-522.65C1025.19,-499.46 985.64,-455.52 953.22,-417 946.56,-409.09 939.46,-400.33 933.12,-392.38"/>
<polygon fill="black" stroke="black" points="935.3,-390.5 926.35,-384.84 929.82,-394.85 935.3,-390.5"/>
<text text-anchor="middle" x="1003.1" y="-447.2" font-family="Times,serif" font-size="14.00">⊆</text>
</g>
</g>
</svg>
